<svg xmlns="http://www.w3.org/2000/svg" viewBox="0 0 32 32">
  <defs>
    <linearGradient id="bg" x1="0%" y1="0%" x2="100%" y2="100%">
      <stop offset="0%" style="stop-color:#8b5cf6"/>
      <stop offset="100%" style="stop-color:#7c3aed"/>
    </linearGradient>
  </defs>
  <rect width="32" height="32" rx="8" fill="url(#bg)"/>
  <path d="M16 6l1.5 4.5L22 12l-4.5 1.5L16 18l-1.5-4.5L10 12l4.5-1.5L16 6z" fill="white"/>
  <path d="M22 18l0.8 2.2L25 21l-2.2 0.8L22 24l-0.8-2.2L19 21l2.2-0.8L22 18z" fill="white" opacity="0.7"/>
  <path d="M10 18l0.6 1.6L12 20.2l-1.4 0.6L10 22.4l-0.6-1.6L8 20.2l1.4-0.6L10 18z" fill="white" opacity="0.5"/>
</svg>
